<?xml version="1.0" standalone="no"?>
<!DOCTYPE svg PUBLIC "-//W3C//DTD SVG 20010904//EN"
 "http://www.w3.org/TR/2001/REC-SVG-20010904/DTD/svg10.dtd">
<svg version="1.0" xmlns="http://www.w3.org/2000/svg"
 width="783.000000pt" height="783.000000pt" viewBox="0 0 783.000000 783.000000"
 preserveAspectRatio="xMidYMid meet">

<g transform="translate(0.000000,783.000000) scale(0.100000,-0.100000)"
fill="#000000" stroke="none">
<path d="M4758 7699 c-396 -26 -745 -207 -1086 -564 -90 -94 -217 -244 -278
-330 l-22 -29 -138 66 c-338 160 -625 233 -964 245 -358 12 -689 -66 -980
-233 -163 -94 -249 -160 -380 -293 -216 -218 -348 -459 -412 -754 -20 -89 -22
-131 -22 -337 0 -219 1 -244 27 -363 93 -436 293 -805 665 -1228 l111 -126 3
-504 c4 -475 5 -508 24 -574 87 -293 300 -510 586 -597 68 -20 98 -22 448 -27
l375 -6 2 -348 c2 -309 4 -356 23 -433 71 -301 293 -532 600 -625 73 -23 87
-23 625 -27 586 -4 648 0 776 43 136 47 296 152 370 245 18 22 36 40 40 40 6
0 304 -183 975 -597 116 -72 226 -139 244 -148 39 -20 125 -21 171 -2 141 60
171 248 58 353 -19 17 -173 117 -344 221 -293 180 -738 454 -870 537 l-61 38
4 342 c2 187 5 346 7 353 3 9 87 12 342 13 367 0 409 5 544 57 211 82 394 264
477 473 58 146 57 136 57 770 0 580 0 586 -23 669 -67 247 -245 458 -469 561
-29 13 -53 27 -53 31 0 4 21 44 47 90 140 250 243 554 289 854 22 148 22 413
0 568 -140 975 -886 1633 -1788 1576z m308 -444 c184 -32 356 -107 517 -224
250 -182 445 -499 517 -844 100 -475 -13 -976 -329 -1460 l-51 -77 -197 2
-198 3 -6 365 c-5 335 -7 371 -27 445 -86 310 -338 545 -654 609 -111 23
-1117 24 -1233 1 -323 -62 -580 -301 -667 -620 -20 -73 -22 -112 -27 -440 l-6
-360 -370 -6 c-344 -5 -375 -7 -443 -27 -85 -26 -174 -69 -252 -122 -54 -37
-176 -158 -216 -214 l-20 -30 -66 85 c-423 542 -553 1129 -353 1592 51 118
118 212 234 328 190 189 394 302 661 366 144 34 405 43 566 19 298 -44 595
-163 887 -355 76 -50 140 -91 142 -91 2 0 65 84 142 188 421 570 704 803 1052
866 104 19 290 19 397 1z m-550 -1604 c128 -15 241 -87 313 -200 57 -89 59
-106 60 -691 1 -294 3 -535 4 -537 2 -1 247 -3 545 -3 518 -1 545 -2 602 -22
104 -35 190 -112 249 -223 l26 -50 3 -554 c1 -305 0 -562 -4 -570 -4 -9 -6
-20 -5 -24 1 -5 -13 -35 -30 -68 -36 -67 -143 -173 -166 -165 -8 3 -12 2 -9
-2 8 -14 -59 -41 -85 -35 -19 4 -21 3 -9 -6 12 -9 9 -11 -15 -11 -16 0 -272 0
-567 0 l-538 0 0 -420 c0 -329 -3 -420 -12 -420 -9 0 -8 -4 2 -10 29 -19 1
-10 -34 11 -20 12 -33 26 -29 32 3 6 1 7 -5 3 -6 -4 -32 6 -58 22 -25 16 -43
32 -38 34 5 3 3 3 -4 1 -19 -4 -63 27 -55 40 3 6 1 7 -5 3 -14 -8 -278 161
-274 176 1 5 -2 7 -7 3 -14 -8 -62 25 -54 38 3 6 1 7 -5 3 -15 -9 -64 23 -55
37 3 6 1 7 -5 3 -15 -9 -64 23 -55 37 3 6 1 7 -5 3 -13 -8 -223 124 -217 135
2 3 -1 6 -8 6 -24 0 -438 283 -431 295 4 7 3 8 -4 4 -15 -9 -64 23 -55 37 3 6
1 7 -5 3 -15 -9 -64 23 -55 37 3 6 1 7 -5 3 -15 -9 -203 123 -195 137 3 6 1 7
-5 3 -15 -9 -64 23 -55 37 3 5 2 7 -4 4 -14 -9 -85 42 -77 55 4 7 2 8 -5 4
-14 -9 -142 84 -134 97 3 6 1 7 -5 3 -15 -9 -84 43 -75 57 3 6 1 7 -5 3 -16
-10 -165 101 -156 116 4 7 3 8 -4 4 -15 -9 -84 43 -75 57 3 6 1 7 -5 3 -15 -9
-84 43 -75 57 3 6 1 7 -5 3 -15 -9 -84 43 -75 57 3 5 1 7 -4 4 -14 -9 -104 63
-96 76 3 6 1 7 -5 3 -15 -9 -103 64 -95 77 3 6 1 7 -4 4 -13 -8 -125 82 -117
94 3 5 0 8 -8 7 -7 -2 -12 3 -10 10 1 8 -2 11 -8 7 -13 -8 -142 104 -134 116
3 5 0 8 -8 7 -7 -2 -12 3 -10 10 1 8 -2 10 -8 7 -6 -4 -58 39 -116 97 l-106
104 17 42 c10 24 20 41 22 38 3 -3 20 14 37 37 40 53 95 107 107 107 5 0 9 4
9 9 0 14 98 52 143 55 23 2 279 4 570 4 l527 2 0 548 c0 301 0 557 0 570 0 13
4 20 10 17 5 -3 7 0 4 9 -9 23 43 111 98 166 53 54 123 99 160 104 13 2 30 6
38 9 8 4 35 8 60 10 95 7 918 6 986 -2z m-2608 -2488 c205 -172 403 -327 637
-500 83 -61 165 -125 184 -142 l33 -30 -344 -3 c-366 -3 -409 -2 -387 14 10 7
7 8 -10 4 -29 -6 -95 19 -86 34 3 5 0 7 -8 5 -29 -12 -164 123 -152 152 2 8 0
11 -5 8 -15 -9 -40 57 -34 86 4 18 3 20 -4 10 -7 -10 -11 68 -11 244 -1 142
-4 262 -7 266 -13 22 17 -1 194 -148z m1457 -1078 c227 -155 884 -584 1188
-776 l217 -137 -37 -32 c-43 -39 -130 -81 -149 -73 -8 3 -14 0 -14 -6 0 -7
-166 -10 -545 -10 -376 0 -544 3 -539 10 4 7 -3 10 -17 9 -44 -4 -60 0 -53 12
4 6 3 8 -4 5 -14 -9 -43 3 -36 14 3 5 -1 6 -9 3 -19 -7 -131 97 -163 153 -27
45 -56 128 -48 136 7 7 4 804 -3 823 -8 21 -21 29 212 -131z"/>
<path d="M3171 1354 c0 -11 3 -14 6 -6 3 7 2 16 -1 19 -3 4 -6 -2 -5 -13z"/>
</g>
</svg>
